# xmcd CD database file
#
# Track frame offsets:
#	187
#	44172
#	67680
#	88062
#	112857
#	129785
#	161822
#	212332
#
# Disc length: 3172 seconds
#
# Revision: 0
# Processed by: cddbd v1.4PL0 Copyright (c) Steve Scherf et al.
# Submitted via: CDex 1.50
#
DISCID=610c6208
DTITLE=Sonny Rollins - Cattin' with Sonny Rollins
DYEAR=1993
DGENRE=Jazz
TTITLE0=Alfie's Theme
TTITLE1=He's Younger Than you Are
TTITLE2=On Impulse
TTITLE3=Hold 'Em Joe
TTITLE4=Blue Room
TTITLE5=On Green Dolphin Street
TTITLE6=Everything Happens To Me
TTITLE7=We Kiss In A Shadow
EXTD=YEAR: 1993
EXTT0=
EXTT1=
EXTT2=
EXTT3=
EXTT4=
EXTT5=
EXTT6=
EXTT7=
PLAYORDER=
